<?xml version="1.0" encoding="utf-8"?>
<!-- Generator: Adobe Illustrator 17.0.0, SVG Export Plug-In . SVG Version: 6.00 Build 0)  -->
<!DOCTYPE svg PUBLIC "-//W3C//DTD SVG 1.1//EN" "http://www.w3.org/Graphics/SVG/1.1/DTD/svg11.dtd">
<svg version="1.1" xmlns="http://www.w3.org/2000/svg" xmlns:xlink="http://www.w3.org/1999/xlink" x="0px" y="0px" width="130px"
	 height="130px" viewBox="0 0 130 130" enable-background="new 0 0 130 130" xml:space="preserve">
<g id="Layer_1" display="none">
	<path display="inline" fill="#FFFFFF" d="M112.803,24.058C107.778,13.156,96.61,7.309,86.49,9.635
		c-1.474-0.919-3.077-1.81-4.827-2.665c0,0-39.928-16.864-40.756,1.874L29.664,25.239c0,0-1.559,2.018-2.069,7.124
		c-0.05-0.039-0.098-0.078-0.15-0.115c-0.103-0.082-0.201-0.173-0.31-0.251c-0.1-0.088-0.201-0.178-0.302-0.268
		c-0.39-0.366-0.74-0.778-0.999-1.135c-0.256-0.355-0.433-0.647-0.433-0.647s-0.035,0.079-0.062,0.226
		c-0.022,0.144-0.046,0.359-0.007,0.609c0.028,0.253,0.109,0.545,0.258,0.829c0.07,0.146,0.162,0.285,0.263,0.421
		c0.022,0.033,0.05,0.061,0.075,0.092c-0.05-0.031-0.103-0.061-0.151-0.096c-0.183-0.128-0.372-0.242-0.533-0.383
		c-0.171-0.129-0.323-0.27-0.476-0.398c-0.137-0.141-0.287-0.265-0.405-0.395c-0.491-0.509-0.79-0.927-0.79-0.927
		s-0.001,0.129,0.042,0.35c0.025,0.109,0.052,0.245,0.106,0.392c0.048,0.149,0.111,0.317,0.201,0.488
		c0.08,0.179,0.193,0.357,0.317,0.545c0.134,0.177,0.266,0.38,0.445,0.548c0.167,0.182,0.354,0.355,0.561,0.514
		c0.198,0.17,0.433,0.291,0.653,0.436c0.235,0.115,0.472,0.233,0.713,0.325c0.148,0.05,0.292,0.087,0.438,0.128
		c-1.087,1.689-4.182,5.36-11.673,7.985c-1.162,0.407-2.577,2.81-0.234,4.918c0,0,3.514,3.045,0.937,5.154
		c0,0-2.577,1.873,0.936,4.919c0,0-3.747,0.937,0,3.982c0,0,0.703,2.108-1.639,5.153c0,0-4.502,6.242,5.446,8.787
		c1.733,0.444,7.944,1.599,9.831,3.585c3.374,3.555,8.163,10.962,8.614,24.636c0,0-1.949,3.415-4.216,7.73
		c-1.453,2.765-0.469,1.405-1.64,7.261c-0.757,3.785-3.961,12.267-6.132,17.793c0.023,0.032,0.036,0.068,0.057,0.102
		c0.014-0.036,0.027-0.068,0.041-0.104c5.53,6.477,15.572,4.233,22.133,0.589c10.975-5.165,29.056-13.053,40.816-7.473
		c-0.141-10.078-2.74-23.633-14.753-28.941c0,0-10.54-8.198-12.414-28.576c0,0-0.612-2.577,0.468-2.108
		c0,0,11.749,6.832,28.114-11.956c3.841,0.578,7.784,0.112,11.447-1.577C114.172,50.444,118.477,36.365,112.803,24.058z"/>
</g>
<g id="Layer_2" display="none">
	<path display="inline" fill="#FFFFFF" d="M120.838,35.43c-5.938-3.14-22.397-3.625-25.242-3.424
		c-2.841,0.201-18.844-0.558-21.994-1.282c-3.144-0.726-28.299-6.299-51.087-2.058c-22.79,4.23-21.15,30.47-21.15,30.47
		c-1.726,12.469,6.41,49.651,11.114,52.161c4.704,2.515,25.581-8.469,30.588-11.676c5.007-3.207,21.959-12.485,25.379-14.632
		c2.333-1.457,5.04-3.835,6.524-5.19c1.991-6.226,4.175-16.559,1.955-28.017c0,0,4.783,18.999,6.307,27.886
		c0.025-0.007,0.044-0.007,0.071-0.007c3.529-0.491,9.811-2.597,14.087-5.989c4.282-3.394,24.056-23.085,29.486-27.039
		C132.304,42.689,126.775,38.567,120.838,35.43z M6.961,59.527c0,0,0.817-19.597,13.917-23.675
		c13.095-4.082,18.005-3.678,18.005-3.678S12.286,39.113,6.961,59.527z"/>
</g>
<g id="Layer_3" display="none">
	<g display="inline">
		<path fill="#FFFFFF" d="M41.933,88.257c-2.571-2.133-6.597-1.488-8.991,1.442c-2.036,2.491-2.236,5.832-0.669,8.087
			c-1.281,2.404-2.177,3.906-4.134,3.79c-2.304-0.136-3.894,0.462-4.862,1.829c-0.816,1.153-1.032,2.653-1.24,4.104
			c-0.138,0.957-0.362,1.865-0.674,2.701c-0.544,1.461-1.008,1.587-2.025,1.864c-0.905,0.246-2.063,0.666-3.437,2.04
			c-0.344,0.344-0.389,0.875-0.144,1.289c0.045,0.077,0.099,0.151,0.166,0.217c0.001,0.001,0.003,0.002,0.004,0.003
			c0.001,0.002,0.002,0.003,0.004,0.004c0.426,0.426,1.104,0.439,1.514,0.029c0.992-0.992,1.779-1.206,2.611-1.433
			c1.168-0.318,2.491-0.677,3.401-3.118c0.389-1.044,0.647-2.048,0.801-3.114c0.182-1.263,0.717-2.093,1.248-2.843
			c0.336-0.475,1.019-1.093,3.053-0.972c2.767,0.163,4.952-1.042,6.727-4.26c2.358,0.65,5.141-0.255,6.971-2.494
			C44.648,94.494,44.504,90.39,41.933,88.257z"/>
		<path fill="#FFFFFF" d="M59.45,91.365c-3.327,0.31-5.717,3.613-5.338,7.377c0.322,3.201,2.543,5.705,5.246,6.191
			c0.795,2.606,1.223,4.301-0.243,5.603c-1.725,1.533-2.427,3.081-2.145,4.732c0.238,1.392,1.147,2.607,2.025,3.78
			c0.58,0.774,1.063,1.577,1.433,2.389c0.648,1.418,0.409,1.84-0.114,2.754c-0.466,0.814-0.988,1.938-0.988,3.882
			c0,0.486,0.343,0.912,0.809,1.032c0.086,0.023,0.177,0.073,0.271,0.073c0.002,0,0.004,0,0.005,0c0.002,0,0.004-0.036,0.006-0.036
			c0.602,0,1.09-0.506,1.09-1.086c0-1.403,0.405-2.111,0.833-2.859c0.601-1.05,1.283-2.241,0.2-4.609
			c-0.464-1.014-0.99-1.906-1.636-2.768c-0.765-1.022-0.973-1.987-1.128-2.892c-0.098-0.574-0.052-1.493,1.472-2.846
			c2.072-1.841,2.765-4.238,1.745-7.769c2.127-1.208,3.455-3.815,3.166-6.692C65.78,93.855,62.776,91.055,59.45,91.365z"/>
		<path fill="#FFFFFF" d="M19.087,26.11c1.044,0.389,2.048,0.647,3.114,0.801c1.263,0.181,2.093,0.717,2.843,1.247
			c0.475,0.336,1.092,1.019,0.972,3.053c-0.163,2.767,1.042,4.952,4.26,6.727c-0.65,2.358,0.255,5.141,2.494,6.971
			c2.929,2.394,7.033,2.25,9.166-0.322c2.133-2.572,1.488-6.597-1.442-8.991c-2.491-2.036-5.832-2.236-8.087-0.669
			c-2.404-1.281-3.906-2.177-3.79-4.134c0.136-2.304-0.462-3.894-1.829-4.862c-1.153-0.816-2.653-1.032-4.104-1.24
			c-0.957-0.138-1.865-0.362-2.701-0.674c-1.461-0.544-1.587-1.008-1.863-2.025c-0.246-0.905-0.665-2.062-2.039-3.436
			c-0.344-0.344-0.874-0.388-1.288-0.143c-0.078,0.045-0.149,0.102-0.215,0.168c-0.001,0.001-0.002,0.003-0.004,0.004
			c-0.001,0.001-0.005,0-0.007,0.002c-0.426,0.426-0.441,1.102-0.03,1.511c0.992,0.992,1.206,1.779,1.433,2.611
			C16.288,23.877,16.647,25.201,19.087,26.11z"/>
		<path fill="#FFFFFF" d="M117.516,123.959c-0.992-0.992-1.206-1.779-1.433-2.611c-0.318-1.168-0.677-2.491-3.118-3.401
			c-1.044-0.389-2.048-0.647-3.114-0.801c-1.263-0.181-2.093-0.717-2.843-1.247c-0.475-0.336-1.092-1.019-0.972-3.053
			c0.163-2.767-1.042-4.952-4.26-6.727c0.65-2.358-0.255-5.141-2.494-6.971c-2.93-2.394-7.033-2.25-9.166,0.322
			c-2.133,2.572-1.488,6.597,1.442,8.991c2.491,2.036,5.832,2.236,8.087,0.669c2.404,1.28,3.907,2.177,3.791,4.134
			c-0.136,2.304,0.463,3.895,1.83,4.863c1.153,0.816,2.656,1.034,4.107,1.243c0.957,0.138,1.87,0.367,2.705,0.678
			c1.461,0.544,1.596,1.018,1.873,2.034c0.246,0.905,0.684,2.081,2.058,3.455c0.344,0.344,0.911,0.426,1.325,0.181
			c0.077-0.045,0.224-0.027,0.29-0.093c0.001-0.001,0.003-0.002,0.004-0.004c0.001-0.001-0.07-0.075-0.069-0.077
			C117.986,125.12,117.926,124.369,117.516,123.959z"/>
		<path fill="#FFFFFF" d="M94.793,39.922c2.036-2.491,2.236-5.832,0.669-8.087c1.281-2.404,2.177-3.906,4.134-3.791
			c2.304,0.136,3.896-0.463,4.863-1.83c0.816-1.153,1.034-2.656,1.243-4.107c0.138-0.957,0.367-1.87,0.678-2.705
			c0.544-1.461,1.017-1.596,2.034-1.873c0.905-0.246,2.081-0.684,3.455-2.058c0.344-0.344,0.426-0.911,0.182-1.325
			c-0.045-0.077-0.027-0.224-0.093-0.29c-0.001-0.001-0.002-0.003-0.004-0.004c-0.001-0.001-0.075,0.07-0.077,0.069
			c-0.426-0.426-1.177-0.366-1.587,0.045c-0.992,0.992-1.779,1.206-2.612,1.433c-1.167,0.318-2.491,0.677-3.401,3.118
			c-0.389,1.044-0.647,2.048-0.801,3.114c-0.181,1.264-0.717,2.093-1.247,2.843c-0.336,0.475-1.019,1.092-3.053,0.972
			c-2.767-0.163-4.952,1.042-6.727,4.26c-2.358-0.65-5.141,0.255-6.971,2.494c-2.394,2.93-2.25,7.033,0.322,9.166
			C88.373,43.497,92.399,42.851,94.793,39.922z"/>
		<path fill="#FFFFFF" d="M38.765,4.462c-0.226,1.189-0.482,2.536,1.314,4.422c0.769,0.807,1.557,1.478,2.449,2.083
			c1.056,0.716,1.568,1.561,2.01,2.366c0.28,0.51,0.536,1.394-0.463,3.171c-1.358,2.416-1.231,4.908,0.885,7.913
			c-1.617,1.836-2.022,4.733-0.81,7.359c1.586,3.435,5.338,5.102,8.382,3.724c3.044-1.378,4.226-5.28,2.64-8.715
			c-1.348-2.921-4.264-4.564-6.978-4.142c-1.601-2.204-2.559-3.667-1.598-5.376c1.131-2.012,1.289-3.704,0.484-5.172
			c-0.679-1.238-1.934-2.09-3.147-2.913c-0.8-0.543-1.519-1.144-2.134-1.79c-1.075-1.129-0.987-1.605-0.79-2.64
			c0.175-0.922,0.302-2.153-0.332-3.99c-0.159-0.459-0.621-0.747-1.1-0.708C39.488,0.06,39.388,0.049,39.3,0.08
			c-0.002,0.001-0.003,0.001-0.005,0.002c-0.002,0.001,0.006,0.029,0.004,0.029c-0.569,0.196-0.868,0.828-0.679,1.376
			C39.078,2.813,38.926,3.614,38.765,4.462z"/>
		<circle fill="#FFFFFF" cx="61.08" cy="64.673" r="21.426"/>
	</g>
</g>
<g id="Layer_5">
	<path fill="#FFFFFF" d="M123.204,71.478c-6.303,1.87-4.14,4.951-8.842,4.011c-4.703-0.942-19.402-14.834-27.223-4.652
		c-7.821,10.181-20.56,11.876-25.014,8.686c-4.455-3.189,8.786-3.108,12.008-7.36c3.222-4.253-8.729-17.774-12.523-11.979
		c-3.794,5.794,5.122,5.971-0.947,8.01c-6.07,2.038-11.763,1.347-7.786-4.591c3.781-5.645,17.88-9.231,5.978-22.255
		c-0.819-2.532,0.182-4.647-0.709-8.374C55.251,20.862,43.554,5.616,19.89,14.821C-3.774,24.025,1.168,46.563,6.101,58.657
		C10.492,69.42,19.125,70.852,22.782,72.81c9.942,5.325-1.343,33.082,23.784,43.801c25.127,10.719,50.413-1.32,52.539-14.691
		c2.126-13.371-5.617-13.95-0.652-17.665c4.965-3.715,10.858,1.922,18.969,2.232C125.534,86.799,129.508,69.607,123.204,71.478z"/>
</g>
</svg>
