<?xml version="1.0" encoding="utf-8"?>
<!-- Generator: Adobe Illustrator 17.0.0, SVG Export Plug-In . SVG Version: 6.00 Build 0)  -->
<!DOCTYPE svg PUBLIC "-//W3C//DTD SVG 1.1//EN" "http://www.w3.org/Graphics/SVG/1.1/DTD/svg11.dtd">
<svg version="1.1" xmlns="http://www.w3.org/2000/svg" xmlns:xlink="http://www.w3.org/1999/xlink" x="0px" y="0px" width="200px"
	 height="200px" viewBox="0 0 200 200" enable-background="new 0 0 200 200" xml:space="preserve">
<g id="Layer_1" display="none">
	<path display="inline" fill="#339745" stroke="#339745" stroke-width="5" stroke-miterlimit="10" d="M101.89,7.098
		c-50.425,0-91.303,40.343-91.303,90.109c0,19.267,6.131,37.119,16.567,51.768L10,189.541L52.031,172.7
		c14.335,9.24,31.459,14.616,49.858,14.616c50.425,0,91.303-40.343,91.303-90.109S152.315,7.098,101.89,7.098z M103.138,165.186
		c-14.975,0-28.858-4.607-40.281-12.457l-25.855,10.359l10.463-24.744c-9.339-11.812-14.905-26.671-14.905-42.814
		c0-38.469,31.599-69.655,70.578-69.655s70.578,31.186,70.578,69.655S142.117,165.186,103.138,165.186z"/>
	<path display="inline" fill="#339745" stroke="#339745" stroke-width="5" stroke-miterlimit="10" d="M147.378,114.794v13.462
		c0,0-14.331,14.461-25.187,11.573s-26.924-11.344-29.53-12.327c-2.606-0.983-26.924-26.344-26.924-26.344
		s-20.41-19.802-6.514-41.081s18.673-6.948,17.805-8.251S90.49,77.014,90.49,77.014l-2.606,6.514l-5.645,6.514l6.948,8.251
		l5.645,6.514l6.568,4.343l5.157,1.737l4.777,2.171l4.395-6.08l5.593-5.819h4.343l5.211,4.082l7.817,3.908L147.378,114.794z"/>
</g>
<g id="Layer_2" display="none">
	<path display="inline" fill="none" stroke="#414042" stroke-width="5" stroke-miterlimit="10" d="M101.89,7.098
		c-50.425,0-91.303,40.343-91.303,90.109c0,19.267,6.131,37.119,16.567,51.768L10,189.541L52.031,172.7
		c14.335,9.24,31.459,14.616,49.858,14.616c50.425,0,91.303-40.343,91.303-90.109S152.315,7.098,101.89,7.098z"/>
	<path display="inline" fill="none" stroke="#414042" stroke-width="5" stroke-miterlimit="10" d="M147.378,114.794v13.462
		c0,0-14.331,14.461-25.187,11.573s-26.924-11.344-29.53-12.327c-2.606-0.983-26.924-26.344-26.924-26.344
		s-20.41-19.802-6.514-41.081s18.673-6.948,17.805-8.251S90.49,77.014,90.49,77.014l-2.606,6.514l-5.645,6.514l6.948,8.251
		l5.645,6.514l6.568,4.343l5.157,1.737l4.777,2.171l4.395-6.08l5.593-5.819h4.343l5.211,4.082l7.817,3.908L147.378,114.794z"/>
	<path display="inline" fill="none" stroke="#414042" stroke-width="5" stroke-miterlimit="10" d="M103.138,25.876
		c-38.979,0-70.578,31.186-70.578,69.655c0,16.143,5.566,31.002,14.905,42.814l-10.463,24.744l25.855-10.359
		c11.423,7.85,25.306,12.457,40.281,12.457c38.979,0,70.578-31.186,70.578-69.655C173.716,57.062,142.117,25.876,103.138,25.876z"/>
</g>
<g id="Layer_4" display="none">
	<path display="inline" fill="#00A14B" stroke="#00A14B" stroke-width="5" stroke-miterlimit="10" d="M100.286,6.675
		C47.937,6.675,5.5,48.368,5.5,99.798s42.437,93.123,94.786,93.123s94.786-41.692,94.786-93.123S152.634,6.675,100.286,6.675z
		 M163.585,52.063H128.48c-2.599-11.368-6.085-21.075-10.197-28.4C136.563,27.749,152.456,37.996,163.585,52.063z M100.494,21.707
		c3.002,0,5.965,0.168,8.881,0.485c4.59,6.219,8.52,16.662,11.343,29.871H78.396c2.784-13.028,6.644-23.371,11.154-29.619
		C93.128,21.962,96.78,21.707,100.494,21.707z M81.271,24.001c-4.03,7.285-7.451,16.867-10.01,28.062H37.402
		C48.239,38.365,63.594,28.293,81.271,24.001z M28.73,65.709h39.967c-1.274,8.472-2.097,17.577-2.384,27.096h-45.33
		C21.897,83.159,24.586,74.021,28.73,65.709z M31.012,138.877c-5.614-9.706-9.183-20.703-10.128-32.427H66.27
		c0.275,11.519,1.331,22.457,3.026,32.427H31.012z M41.011,152.522h31.152c2.367,9.311,5.351,17.37,8.79,23.742
		C65.287,172.393,51.461,163.975,41.011,152.522z M140.749,147.801v4.72h19.227c-5.537,6.069-12.024,11.283-19.227,15.423v11.868
		h-32.777v-1.526c-2.463,0.226-4.956,0.347-7.479,0.347c-4.247,0-8.416-0.329-12.483-0.956c-3.61-5.952-6.741-14.601-9.146-25.155
		h29.108v-4.72H77.672v-8.925h-1.348c-1.473-9.884-2.384-20.843-2.595-32.427h34.244V92.805H73.805
		c0.284-9.586,1.049-18.705,2.213-27.096h47.077c0.948,6.833,1.626,14.155,2,21.812h8.109c-0.394-7.609-1.125-14.923-2.162-21.812
		h41.214c4.144,8.313,6.833,17.451,7.747,27.096h-39.255v13.645h39.354c-0.763,9.47-3.24,18.464-7.122,26.689v14.663H140.749z"/>
	<polygon display="inline" fill="#00A14B" points="158.822,125.088 132.129,125.088 132.129,98.853 117.694,98.853 117.694,125.088 
		91.917,125.088 91.917,139.523 117.694,139.523 117.694,165.758 132.129,165.758 132.129,139.523 158.822,139.523 	"/>
</g>
<g id="Layer_3">
	<path fill="none" stroke="#414042" stroke-width="4" stroke-miterlimit="10" d="M100.286,6.675C47.937,6.675,5.5,48.368,5.5,99.798
		s42.437,93.123,94.786,93.123s94.786-41.692,94.786-93.123S152.634,6.675,100.286,6.675z M133.427,92.805
		c-0.288-9.519-1.11-18.624-2.384-27.096h41.214c4.144,8.313,6.833,17.451,7.747,27.096H133.427z M180.103,106.45
		c-0.945,11.723-4.513,22.72-10.128,32.427h-39.531c1.695-9.97,2.751-20.908,3.026-32.427H180.103z M163.585,52.063H128.48
		c-2.599-11.368-6.085-21.075-10.197-28.4C136.563,27.749,152.456,37.996,163.585,52.063z M100.494,178.633
		c-4.247,0-8.416-0.329-12.483-0.956c-3.61-5.952-6.741-14.601-9.146-25.155h41.384c-2.445,10.728-5.639,19.486-9.325,25.446
		C107.51,178.405,104.029,178.633,100.494,178.633z M76.324,138.877c-1.473-9.884-2.384-20.843-2.595-32.427h51.655
		c-0.212,11.583-1.122,22.543-2.595,32.427H76.324z M100.494,21.707c3.002,0,5.965,0.168,8.881,0.485
		c4.59,6.219,8.52,16.662,11.343,29.871H78.396c2.784-13.028,6.644-23.371,11.154-29.619C93.128,21.962,96.78,21.707,100.494,21.707
		z M123.095,65.709c1.164,8.391,1.929,17.51,2.213,27.096H73.805c0.284-9.586,1.049-18.705,2.213-27.096H123.095z M81.271,24.001
		c-4.03,7.285-7.451,16.867-10.01,28.062H37.402C48.239,38.365,63.594,28.293,81.271,24.001z M20.884,106.45H66.27
		c0.275,11.519,1.331,22.457,3.026,32.427H31.012C25.398,129.17,21.829,118.173,20.884,106.45z M20.982,92.805
		c0.914-9.645,3.604-18.783,7.747-27.096h39.967c-1.274,8.472-2.097,17.577-2.384,27.096H20.982z M41.011,152.522h31.152
		c2.367,9.311,5.351,17.37,8.79,23.742C65.287,172.393,51.461,163.975,41.011,152.522z M118.598,176.608
		c3.519-6.425,6.569-14.606,8.979-24.086h32.399C149.207,164.324,134.856,172.906,118.598,176.608z"/>
	<polygon fill="#FFFFFF" points="172.98,118.908 140.749,118.908 140.749,87.521 107.972,87.521 107.972,118.908 77.672,118.908 
		77.672,147.801 107.972,147.801 107.972,179.812 140.749,179.812 140.749,147.801 172.98,147.801 	"/>
	<polygon fill="none" stroke="#414042" stroke-width="4" stroke-miterlimit="10" points="166.155,124.767 133.345,124.767 
		133.345,92.52 115.601,92.52 115.601,124.767 83.917,124.767 83.917,142.511 115.601,142.511 115.601,174.758 133.345,174.758 
		133.345,142.511 166.155,142.511 	"/>
</g>
<g id="Layer_5" display="none">
	<path display="inline" fill="#339745" stroke="#339745" stroke-width="5" stroke-miterlimit="10" d="M168.876,86.725
		c-9.667,0-17.887,6.178-20.939,14.799l-12.663-0.442c0.005-0.257,0.011-0.515,0.011-0.774c0-12.758-6.641-23.964-16.655-30.352
		l13.219-18.195c1.973,0.533,4.047,0.822,6.189,0.822c13.077,0,23.679-10.601,23.679-23.679c0-13.077-10.601-23.679-23.679-23.679
		c-13.077,0-23.679,10.601-23.679,23.679c0,7.474,3.466,14.135,8.875,18.475L109.79,65.884c-3.317-1.009-6.836-1.553-10.482-1.553
		c-8.412,0-16.15,2.888-22.277,7.726L51.845,43.084c2.163-3.609,3.409-7.83,3.409-12.343c0-13.28-10.766-24.046-24.046-24.046
		c-13.28,0-24.046,10.766-24.046,24.046c0,13.28,10.766,24.046,24.046,24.046c5.292,0,10.183-1.714,14.154-4.611l25.003,28.763
		c-4.42,5.976-7.034,13.368-7.034,21.371c0,8.003,2.614,15.394,7.034,21.37L43.76,152.283c-3.507-2.445-7.769-3.883-12.368-3.883
		c-11.962,0-21.66,9.697-21.66,21.66s9.697,21.66,21.66,21.66s21.66-9.697,21.66-21.66c0-3.883-1.027-7.525-2.817-10.676
		l26.795-30.825c6.127,4.838,13.865,7.726,22.278,7.726c5.017,0,9.793-1.028,14.132-2.883l17.395,20.01
		c-5.121,4.139-8.398,10.468-8.398,17.565c0,12.469,10.108,22.577,22.578,22.577s22.577-10.108,22.577-22.577
		c0-12.469-10.108-22.577-22.577-22.577c-1.838,0-3.623,0.225-5.333,0.639l-17.923-20.619c5.658-4.524,9.921-10.72,12.039-17.84
		l12.971,0.453c1.058,11.282,10.55,20.112,22.109,20.112c12.266,0,22.21-9.944,22.21-22.21S181.142,86.725,168.876,86.725z"/>
</g>
<g id="Layer_6" display="none">
	<path display="inline" fill="none" stroke="#414042" stroke-width="5" stroke-miterlimit="10" d="M168.876,86.725
		c-9.667,0-17.887,6.178-20.939,14.799l-12.663-0.442c0.005-0.257,0.011-0.515,0.011-0.774c0-12.758-6.641-23.964-16.655-30.352
		l13.219-18.195c1.973,0.533,4.047,0.822,6.189,0.822c13.077,0,23.679-10.601,23.679-23.679c0-13.077-10.601-23.679-23.679-23.679
		c-13.077,0-23.679,10.601-23.679,23.679c0,7.474,3.466,14.135,8.875,18.475L109.79,65.884c-3.317-1.009-6.836-1.553-10.482-1.553
		c-8.412,0-16.15,2.888-22.277,7.726L51.845,43.084c2.163-3.609,3.409-7.83,3.409-12.343c0-13.28-10.766-24.046-24.046-24.046
		c-13.28,0-24.046,10.766-24.046,24.046c0,13.28,10.766,24.046,24.046,24.046c5.292,0,10.183-1.714,14.154-4.611l25.003,28.763
		c-4.42,5.976-7.034,13.368-7.034,21.371c0,8.003,2.614,15.394,7.034,21.37L43.76,152.283c-3.507-2.445-7.769-3.883-12.368-3.883
		c-11.962,0-21.66,9.697-21.66,21.66s9.697,21.66,21.66,21.66s21.66-9.697,21.66-21.66c0-3.883-1.027-7.525-2.817-10.676
		l26.795-30.825c6.127,4.838,13.865,7.726,22.278,7.726c5.017,0,9.793-1.028,14.132-2.883l17.395,20.01
		c-5.121,4.139-8.398,10.468-8.398,17.565c0,12.469,10.108,22.577,22.578,22.577s22.577-10.108,22.577-22.577
		c0-12.469-10.108-22.577-22.577-22.577c-1.838,0-3.623,0.225-5.333,0.639l-17.923-20.619c5.658-4.524,9.921-10.72,12.039-17.84
		l12.971,0.453c1.058,11.282,10.55,20.112,22.109,20.112c12.266,0,22.21-9.944,22.21-22.21S181.142,86.725,168.876,86.725z"/>
</g>
<g id="Layer_8" display="none">
	<g display="inline">
		<polygon fill="#00A14B" stroke="#00A14B" stroke-width="4" stroke-miterlimit="10" points="177.795,29.086 139.065,29.086 
			139.065,45.339 177.795,45.339 177.795,179.859 22.181,179.859 22.181,45.339 61.949,45.339 61.949,29.086 22.181,29.086 
			6.273,29.086 6.273,45.339 6.273,179.859 6.273,193 22.181,193 177.795,193 193.703,193 193.703,179.859 193.703,45.339 
			193.703,29.086 		"/>
		
			<rect x="38.434" y="84.761" fill="#00A14B" stroke="#00A14B" stroke-width="4" stroke-miterlimit="10" width="29.394" height="29.74"/>
		
			<rect x="84.772" y="84.761" fill="#00A14B" stroke="#00A14B" stroke-width="4" stroke-miterlimit="10" width="30.086" height="29.74"/>
		
			<rect x="130.765" y="84.761" fill="#00A14B" stroke="#00A14B" stroke-width="4" stroke-miterlimit="10" width="30.085" height="29.74"/>
		
			<rect x="38.78" y="131.792" fill="#00A14B" stroke="#00A14B" stroke-width="4" stroke-miterlimit="10" width="29.394" height="29.74"/>
		
			<rect x="85.118" y="131.792" fill="#00A14B" stroke="#00A14B" stroke-width="4" stroke-miterlimit="10" width="30.086" height="29.74"/>
		
			<rect x="131.111" y="131.792" fill="#00A14B" stroke="#00A14B" stroke-width="4" stroke-miterlimit="10" width="30.086" height="29.74"/>
		<path fill="#00A14B" stroke="#00A14B" stroke-width="4" stroke-miterlimit="10" d="M131.96,6.954H68.677v61.554h63.283V6.954z
			 M124.449,44.86H107.85v15.907H94.363V44.86H78.11V32.065h16.253V16.157h13.487v15.907h16.599V44.86z"/>
	</g>
</g>
<g id="Layer_7" display="none">
	<g display="inline">
		<g>
			<polygon fill="none" stroke="#414042" stroke-width="5" stroke-miterlimit="10" points="177.795,29.086 139.065,29.086 
				139.065,45.339 177.795,45.339 177.795,179.859 22.181,179.859 22.181,45.339 61.949,45.339 61.949,29.086 22.181,29.086 
				6.273,29.086 6.273,45.339 6.273,179.859 6.273,193 22.181,193 177.795,193 193.703,193 193.703,179.859 193.703,45.339 
				193.703,29.086 			"/>
			
				<rect x="38.434" y="84.761" fill="none" stroke="#414042" stroke-width="5" stroke-miterlimit="10" width="29.394" height="29.74"/>
			
				<rect x="84.772" y="84.761" fill="none" stroke="#414042" stroke-width="5" stroke-miterlimit="10" width="30.086" height="29.74"/>
			
				<rect x="130.765" y="84.761" fill="none" stroke="#414042" stroke-width="5" stroke-miterlimit="10" width="30.085" height="29.74"/>
			
				<rect x="38.78" y="131.792" fill="none" stroke="#414042" stroke-width="5" stroke-miterlimit="10" width="29.394" height="29.74"/>
			
				<rect x="85.118" y="131.792" fill="none" stroke="#414042" stroke-width="5" stroke-miterlimit="10" width="30.085" height="29.74"/>
			
				<rect x="131.111" y="131.792" fill="none" stroke="#414042" stroke-width="5" stroke-miterlimit="10" width="30.086" height="29.74"/>
		</g>
		<path fill="none" stroke="#414042" stroke-width="5" stroke-miterlimit="10" d="M131.96,6.954H68.677v61.554h63.283V6.954z
			 M124.449,44.86H107.85v15.907H94.363V44.86H78.11V32.065h16.253V16.157h13.487v15.907h16.599V44.86z"/>
	</g>
</g>
</svg>
