<?xml version="1.0" encoding="utf-8"?>
<!-- Generator: Adobe Illustrator 17.0.0, SVG Export Plug-In . SVG Version: 6.00 Build 0)  -->
<!DOCTYPE svg PUBLIC "-//W3C//DTD SVG 1.1//EN" "http://www.w3.org/Graphics/SVG/1.1/DTD/svg11.dtd">
<svg version="1.1" id="Layer_1" xmlns="http://www.w3.org/2000/svg" xmlns:xlink="http://www.w3.org/1999/xlink" x="0px" y="0px"
	 width="130px" height="130px" viewBox="0 0 130 130" enable-background="new 0 0 130 130" xml:space="preserve">
<polyline fill="#E6E7E8" points="31,121.371 49.724,66.981 57.303,74.114 64.436,70.994 71.124,74.114 54.183,128.059 "/>
<polygon fill="#E6E7E8" points="55.966,62.077 51.062,33.991 46.158,33.099 40.362,30.87 35.012,24.183 35.904,16.604 39.025,9.916 
	45.712,5.012 52.399,5.904 57.303,7.241 59.978,7.241 64.882,2.337 69.786,1 74.245,1.446 78.257,3.675 82.269,7.687 84.498,13.037 
	84.498,18.387 83.161,23.737 79.149,27.749 75.582,29.532 72.907,31.316 78.703,60.74 68.003,59.848 65.328,64.306 "/>
<polygon fill="#E6E7E8" points="84.053,69.21 100.994,68.319 101.44,62.969 83.161,64.306 "/>
<polygon fill="#E6E7E8" points="84.053,78.127 94.306,83.923 96.981,80.356 85.836,73.223 "/>
<polygon fill="#E6E7E8" points="73.799,81.693 77.811,94.622 83.161,92.839 78.703,79.018 "/>
</svg>
