<?xml version="1.0" encoding="utf-8"?>
<!-- Generator: Adobe Illustrator 17.0.0, SVG Export Plug-In . SVG Version: 6.00 Build 0)  -->
<!DOCTYPE svg PUBLIC "-//W3C//DTD SVG 1.1//EN" "http://www.w3.org/Graphics/SVG/1.1/DTD/svg11.dtd">
<svg version="1.1" xmlns="http://www.w3.org/2000/svg" xmlns:xlink="http://www.w3.org/1999/xlink" x="0px" y="0px" width="130px"
	 height="130px" viewBox="0 0 130 130" enable-background="new 0 0 130 130" xml:space="preserve">
<g id="Layer_1" display="none">
	<path display="inline" fill="#FFFFFF" d="M112.803,24.058C107.778,13.156,96.61,7.309,86.49,9.635
		c-1.474-0.919-3.077-1.81-4.827-2.665c0,0-39.928-16.864-40.756,1.874L29.664,25.239c0,0-1.559,2.018-2.069,7.124
		c-0.05-0.039-0.098-0.078-0.15-0.115c-0.103-0.082-0.201-0.173-0.31-0.251c-0.1-0.088-0.201-0.178-0.302-0.268
		c-0.39-0.366-0.74-0.778-0.999-1.135c-0.256-0.355-0.433-0.647-0.433-0.647s-0.035,0.079-0.062,0.226
		c-0.022,0.144-0.046,0.359-0.007,0.609c0.028,0.253,0.109,0.545,0.258,0.829c0.07,0.146,0.162,0.285,0.263,0.421
		c0.022,0.033,0.05,0.061,0.075,0.092c-0.05-0.031-0.103-0.061-0.151-0.096c-0.183-0.128-0.372-0.242-0.533-0.383
		c-0.171-0.129-0.323-0.27-0.476-0.398c-0.137-0.141-0.287-0.265-0.405-0.395c-0.491-0.509-0.79-0.927-0.79-0.927
		s-0.001,0.129,0.042,0.35c0.025,0.109,0.052,0.245,0.106,0.392c0.048,0.149,0.111,0.317,0.201,0.488
		c0.08,0.179,0.193,0.357,0.317,0.545c0.134,0.177,0.266,0.38,0.445,0.548c0.167,0.182,0.354,0.355,0.561,0.514
		c0.198,0.17,0.433,0.291,0.653,0.436c0.235,0.115,0.472,0.233,0.713,0.325c0.148,0.05,0.292,0.087,0.438,0.128
		c-1.087,1.689-4.182,5.36-11.673,7.985c-1.162,0.407-2.577,2.81-0.234,4.918c0,0,3.514,3.045,0.937,5.154
		c0,0-2.577,1.873,0.936,4.919c0,0-3.747,0.937,0,3.982c0,0,0.703,2.108-1.639,5.153c0,0-4.502,6.242,5.446,8.787
		c1.733,0.444,7.944,1.599,9.831,3.585c3.374,3.555,8.163,10.962,8.614,24.636c0,0-1.949,3.415-4.216,7.73
		c-1.453,2.765-0.469,1.405-1.64,7.261c-0.757,3.785-3.961,12.267-6.132,17.793c0.023,0.032,0.036,0.068,0.057,0.102
		c0.014-0.036,0.027-0.068,0.041-0.104c5.53,6.477,15.572,4.233,22.133,0.589c10.975-5.165,29.056-13.053,40.816-7.473
		c-0.141-10.078-2.74-23.633-14.753-28.941c0,0-10.54-8.198-12.414-28.576c0,0-0.612-2.577,0.468-2.108
		c0,0,11.749,6.832,28.114-11.956c3.841,0.578,7.784,0.112,11.447-1.577C114.172,50.444,118.477,36.365,112.803,24.058z"/>
</g>
<g id="Layer_2">
	<path fill="#FFFFFF" d="M120.838,35.43c-5.938-3.14-22.397-3.625-25.242-3.424c-2.841,0.201-18.844-0.558-21.994-1.282
		c-3.144-0.726-28.299-6.299-51.087-2.058c-22.79,4.23-21.15,30.47-21.15,30.47c-1.726,12.469,6.41,49.651,11.114,52.161
		c4.704,2.515,25.581-8.469,30.588-11.676c5.007-3.207,21.959-12.485,25.379-14.632c2.333-1.457,5.04-3.835,6.524-5.19
		c1.991-6.226,4.175-16.559,1.955-28.017c0,0,4.783,18.999,6.307,27.886c0.025-0.007,0.044-0.007,0.071-0.007
		c3.529-0.491,9.811-2.597,14.087-5.989c4.282-3.394,24.056-23.085,29.486-27.039C132.304,42.689,126.775,38.567,120.838,35.43z
		 M6.961,59.527c0,0,0.817-19.597,13.917-23.675c13.095-4.082,18.005-3.678,18.005-3.678S12.286,39.113,6.961,59.527z"/>
</g>
</svg>
